<svg width="1050.3699951171875px" height="122.021240234375px" xmlns="http://www.w3.org/2000/svg" viewBox="-275.18499755859375 13.9893798828125 1050.3699951171875 122.021240234375" style="background: rgba(0, 0, 0, 0);" preserveAspectRatio="xMidYMid"><defs><filter id="editing-vr"><feFlood flood-color="#f00" flood-opacity="0.7" result="c1"></feFlood><feFlood flood-color="#00f" flood-opacity="0.7" result="c3"></feFlood><feComposite operator="in" in="c1" in2="SourceAlpha" result="text-c1"></feComposite><feComposite operator="in" in="c3" in2="SourceAlpha" result="text-c3"></feComposite><feOffset in="text-c1" dx="5" dy="-1" result="text1"></feOffset><feOffset in="text-c3" dx="-5" dy="1" result="text3"></feOffset><feBlend in="SourceGraphic" in2="text1" mode="multiply" result="text4"></feBlend><feBlend in="text4" in2="text3" mode="multiply"></feBlend></filter></defs><g filter="url(#editing-vr)"><g transform="translate(-128.81500005722046, 104.78218841552734)"><path d="M2.69-39.68L2.69-39.68L2.69-39.68Q3.58-41.47 5.54-42.46L5.54-42.46L5.54-42.46Q7.49-43.46 10.18-43.46L10.18-43.46L10.18-43.46Q14.40-43.46 16.93-40.42L16.93-40.42L16.93-40.42Q19.46-37.38 19.46-30.72L19.46-30.72L19.46-7.87L34.11-42.18L41.66-42.18L43.39-9.79L43.20-7.94L58.43-42.18L67.20-42.18L46.72 0L33.09 0L31.81-19.46L23.36 0L7.94 0L6.02-30.72L6.02-30.72Q5.82-34.18 4.90-36.45L4.90-36.45L4.90-36.45Q3.97-38.72 2.69-39.68ZM91.78-9.86L91.78-9.86L91.78-9.86Q92.99-8.32 92.99-5.82L92.99-5.82L92.99-5.82Q92.99-2.37 90.43-0.54L90.43-0.54L90.43-0.54Q87.87 1.28 83.84 1.28L83.84 1.28L83.84 1.28Q81.54 1.28 78.02 0.77L78.02 0.77L78.02 0.77Q71.10-0.32 68.99-0.32L68.99-0.32L68.99-0.32Q66.88-0.32 66.05-0.22L66.05-0.22L66.05-0.22Q65.22-0.13 63.87 0L63.87 0L71.74-42.24L99.33-42.24L99.33-42.24Q99.33-38.34 97.44-36.29L97.44-36.29L97.44-36.29Q95.55-34.24 91.84-34.24L91.84-34.24L91.84-34.24Q88.13-34.24 84.35-35.97L84.35-35.97L82.37-24.77L93.76-24.77L93.76-24.77Q93.76-21.38 92.10-19.49L92.10-19.49L92.10-19.49Q90.43-17.60 87.65-17.60L87.65-17.60L87.65-17.60Q84.86-17.60 83.14-18.24L83.14-18.24L83.14-18.24Q81.41-18.88 81.22-19.07L81.22-19.07L78.91-6.98L78.91-6.98Q80.45-6.78 83.33-6.78L83.33-6.78L83.33-6.78Q88.26-6.78 91.78-9.86ZM114.18-3.52L114.18-3.52L114.18-3.52Q112.19 1.28 105.86 1.28L105.86 1.28L105.86 1.28Q102.66 1.28 100.61-0.96L100.61-0.96L100.61-0.96Q98.94-2.82 98.94-4.93L98.94-4.93L98.94-4.93Q98.94-9.73 101.18-20.22L101.18-20.22L105.86-44.80L118.85-46.08L112.64-13.70L112.64-13.70Q111.55-8.96 111.55-7.30L111.55-7.30L111.55-7.30Q111.55-3.65 114.18-3.52ZM151.04-26.62L151.04-26.62L151.04-26.62Q151.04-23.94 148.80-22.27L148.80-22.27L148.80-22.27Q146.56-20.61 142.91-20.61L142.91-20.61L142.91-20.61Q141.38-20.61 140.48-21.06L140.48-21.06L140.48-21.06Q141.18-22.72 141.41-24.80L141.41-24.80L141.41-24.80Q141.63-26.88 141.63-27.46L141.63-27.46L141.63-27.46Q141.63-30.14 139.78-30.14L139.78-30.14L139.78-30.14Q138.50-30.14 137.06-28.54L137.06-28.54L137.06-28.54Q135.62-26.94 134.40-24.45L134.40-24.45L134.40-24.45Q131.71-18.69 131.71-12.86L131.71-12.86L131.71-12.86Q131.71-9.66 132.93-8.22L132.93-8.22L132.93-8.22Q134.14-6.78 136.83-6.78L136.83-6.78L136.83-6.78Q140.54-6.78 143.49-9.86L143.49-9.86L143.49-9.86Q144.32-10.82 144.77-11.90L144.77-11.90L144.77-11.90Q147.20-10.62 147.20-7.10L147.20-7.10L147.20-7.10Q147.20-3.52 143.23-1.15L143.23-1.15L143.23-1.15Q139.14 1.28 132.61 1.28L132.61 1.28L132.61 1.28Q119.62 1.28 119.62-12.48L119.62-12.48L119.62-12.48Q119.62-22.53 125.31-28.29L125.31-28.29L125.31-28.29Q130.82-33.92 140.93-33.92L140.93-33.92L140.93-33.92Q151.04-33.92 151.04-26.62ZM166.72 1.28L166.72 1.28L166.72 1.28Q152.64 1.28 152.64-11.97L152.64-11.97L152.64-11.97Q152.64-21.38 157.82-27.46L157.82-27.46L157.82-27.46Q163.33-33.92 172.86-33.92L172.86-33.92L172.86-33.92Q179.78-33.92 183.30-30.72L183.30-30.72L183.30-30.72Q186.82-27.52 186.82-20.80L186.82-20.80L186.82-20.80Q186.82-10.56 181.31-4.61L181.31-4.61L181.31-4.61Q175.94 1.28 166.72 1.28ZM168.38-26.56L168.38-26.56L168.38-26.56Q167.62-24.83 167.01-22.24L167.01-22.24L167.01-22.24Q166.40-19.65 165.63-15.55L165.63-15.55L165.63-15.55Q164.86-11.46 164.86-6.40L164.86-6.40L164.86-6.40Q164.86-4.74 165.41-3.65L165.41-3.65L165.41-3.65Q165.95-2.56 167.42-2.56L167.42-2.56L167.42-2.56Q168.90-2.56 169.82-3.26L169.82-3.26L169.82-3.26Q170.75-3.97 171.46-5.63L171.46-5.63L171.46-5.63Q172.74-8.58 173.76-14.05L173.76-14.05L173.76-14.05Q174.78-19.52 174.88-21.89L174.88-21.89L174.88-21.89Q174.98-24.26 174.98-26.02L174.98-26.02L174.98-26.02Q174.98-27.78 174.46-28.93L174.46-28.93L174.46-28.93Q173.95-30.08 172.51-30.08L172.51-30.08L172.51-30.08Q171.07-30.08 170.11-29.18L170.11-29.18L170.11-29.18Q169.15-28.29 168.38-26.56ZM236.67 1.28L236.67 1.28L236.67 1.28Q228.93 1.28 228.93-4.74L228.93-4.74L228.93-4.74Q228.93-7.36 230.05-12.45L230.05-12.45L230.05-12.45Q231.17-17.54 231.55-19.58L231.55-19.58L231.55-19.58Q232.45-24.26 232.45-25.73L232.45-25.73L232.45-25.73Q232.45-28.99 230.02-28.99L230.02-28.99L230.02-28.99Q228.42-28.99 226.88-26.78L226.88-26.78L226.88-26.78Q225.34-24.58 224.64-20.16L224.64-20.16L220.67 0L208.19 1.28L211.65-16.13L211.65-16.13Q212.22-19.01 212.74-22.27L212.74-22.27L212.74-22.27Q213.25-25.54 213.25-26.05L213.25-26.05L213.25-26.05Q213.25-28.99 211.07-28.99L211.07-28.99L211.07-28.99Q209.60-28.99 208.00-26.82L208.00-26.82L208.00-26.82Q206.40-24.64 205.50-20.16L205.50-20.16L201.60 0L188.99 1.28L195.71-32.64L206.14-33.92L205.06-27.46L205.06-27.46Q206.72-30.91 209.79-32.42L209.79-32.42L209.79-32.42Q212.86-33.92 217.66-33.92L217.66-33.92L217.66-33.92Q220.42-33.92 222.21-32.58L222.21-32.58L222.21-32.58Q224.00-31.23 224.58-29.06L224.58-29.06L224.58-29.06Q225.66-31.30 228.45-32.61L228.45-32.61L228.45-32.61Q231.23-33.92 234.66-33.92L234.66-33.92L234.66-33.92Q238.08-33.92 239.78-33.18L239.78-33.18L239.78-33.18Q241.47-32.45 242.50-31.23L242.50-31.23L242.50-31.23Q244.22-28.99 244.22-24.90L244.22-24.90L244.22-24.90Q244.22-20.86 242.50-12.48L242.50-12.48L242.50-12.48Q241.60-8.38 241.60-6.88L241.60-6.88L241.60-6.88Q241.60-5.38 242.46-4.48L242.46-4.48L242.46-4.48Q243.33-3.58 244.61-3.46L244.61-3.46L244.61-3.46Q243.97-1.28 241.76 0L241.76 0L241.76 0Q239.55 1.28 236.67 1.28ZM275.46-10.82L275.46-10.82L275.46-10.82Q277.06-9.73 277.06-7.33L277.06-7.33L277.06-7.33Q277.06-4.93 275.84-3.39L275.84-3.39L275.84-3.39Q274.62-1.86 272.64-0.83L272.64-0.83L272.64-0.83Q268.54 1.28 264.13 1.28L264.13 1.28L264.13 1.28Q259.71 1.28 257.12 0.32L257.12 0.32L257.12 0.32Q254.53-0.64 252.80-2.43L252.80-2.43L252.80-2.43Q249.41-5.82 249.41-12.03L249.41-12.03L249.41-12.03Q249.41-21.70 254.66-27.58L254.66-27.58L254.66-27.58Q260.29-33.92 270.08-33.92L270.08-33.92L270.08-33.92Q276.16-33.92 279.17-31.36L279.17-31.36L279.17-31.36Q281.41-29.44 281.41-26.30L281.41-26.30L281.41-26.30Q281.41-15.04 261.95-15.04L261.95-15.04L261.95-15.04Q261.70-13.38 261.70-11.97L261.70-11.97L261.70-11.97Q261.70-9.02 263.01-7.90L263.01-7.90L263.01-7.90Q264.32-6.78 266.75-6.78L266.75-6.78L266.75-6.78Q269.18-6.78 271.78-7.90L271.78-7.90L271.78-7.90Q274.37-9.02 275.46-10.82ZM262.40-17.79L262.40-17.79L262.40-17.79Q266.94-17.79 269.57-20.61L269.57-20.61L269.57-20.61Q272.19-23.30 272.19-27.58L272.19-27.58L272.19-27.58Q272.19-29.06 271.65-29.86L271.65-29.86L271.65-29.86Q271.10-30.66 270.02-30.66L270.02-30.66L270.02-30.66Q268.93-30.66 268.00-30.24L268.00-30.24L268.00-30.24Q267.07-29.82 266.11-28.42L266.11-28.42L266.11-28.42Q263.74-25.22 262.40-17.79ZM297.79-6.40L297.79-6.40L297.79-6.40Q297.79-8.13 298.69-12.48L298.69-12.48L302.08-29.76L298.30-29.76L298.56-31.68L298.56-31.68Q306.24-33.98 313.66-39.62L313.66-39.62L316.74-39.62L315.20-32.64L320.19-32.64L319.62-29.76L314.69-29.76L311.42-12.48L311.42-12.48Q310.59-8.51 310.59-7.17L310.59-7.17L310.59-7.17Q310.59-4.10 313.28-3.46L313.28-3.46L313.28-3.46Q312.64-1.28 310.34 0L310.34 0L310.34 0Q308.03 1.28 304.77 1.28L304.77 1.28L304.77 1.28Q301.50 1.28 299.65-0.77L299.65-0.77L299.65-0.77Q297.79-2.82 297.79-6.40ZM333.57 1.28L333.57 1.28L333.57 1.28Q319.49 1.28 319.49-11.97L319.49-11.97L319.49-11.97Q319.49-21.38 324.67-27.46L324.67-27.46L324.67-27.46Q330.18-33.92 339.71-33.92L339.71-33.92L339.71-33.92Q346.62-33.92 350.14-30.72L350.14-30.72L350.14-30.72Q353.66-27.52 353.66-20.80L353.66-20.80L353.66-20.80Q353.66-10.56 348.16-4.61L348.16-4.61L348.16-4.61Q342.78 1.28 333.57 1.28ZM335.23-26.56L335.23-26.56L335.23-26.56Q334.46-24.83 333.86-22.24L333.86-22.24L333.86-22.24Q333.25-19.65 332.48-15.55L332.48-15.55L332.48-15.55Q331.71-11.46 331.71-6.40L331.71-6.40L331.71-6.40Q331.71-4.74 332.26-3.65L332.26-3.65L332.26-3.65Q332.80-2.56 334.27-2.56L334.27-2.56L334.27-2.56Q335.74-2.56 336.67-3.26L336.67-3.26L336.67-3.26Q337.60-3.97 338.30-5.63L338.30-5.63L338.30-5.63Q339.58-8.58 340.61-14.05L340.61-14.05L340.61-14.05Q341.63-19.52 341.73-21.89L341.73-21.89L341.73-21.89Q341.82-24.26 341.82-26.02L341.82-26.02L341.82-26.02Q341.82-27.78 341.31-28.93L341.31-28.93L341.31-28.93Q340.80-30.08 339.36-30.08L339.36-30.08L339.36-30.08Q337.92-30.08 336.96-29.18L336.96-29.18L336.96-29.18Q336.00-28.29 335.23-26.56ZM416.70 1.28L416.70 1.28L416.70 1.28Q408.96 1.28 408.96-4.74L408.96-4.74L408.96-4.74Q408.96-7.36 410.08-12.45L410.08-12.45L410.08-12.45Q411.20-17.54 411.58-19.58L411.58-19.58L411.58-19.58Q412.48-24.26 412.48-25.73L412.48-25.73L412.48-25.73Q412.48-28.99 410.05-28.99L410.05-28.99L410.05-28.99Q408.45-28.99 406.91-26.78L406.91-26.78L406.91-26.78Q405.38-24.58 404.67-20.16L404.67-20.16L400.70 0L388.22 1.28L391.68-16.13L391.68-16.13Q392.26-19.01 392.77-22.27L392.77-22.27L392.77-22.27Q393.28-25.54 393.28-26.05L393.28-26.05L393.28-26.05Q393.28-28.99 391.10-28.99L391.10-28.99L391.10-28.99Q389.63-28.99 388.03-26.82L388.03-26.82L388.03-26.82Q386.43-24.64 385.54-20.16L385.54-20.16L381.63 0L369.02 1.28L375.74-32.64L386.18-33.92L385.09-27.46L385.09-27.46Q386.75-30.91 389.82-32.42L389.82-32.42L389.82-32.42Q392.90-33.92 397.70-33.92L397.70-33.92L397.70-33.92Q400.45-33.92 402.24-32.58L402.24-32.58L402.24-32.58Q404.03-31.23 404.61-29.06L404.61-29.06L404.61-29.06Q405.70-31.30 408.48-32.61L408.48-32.61L408.48-32.61Q411.26-33.92 414.69-33.92L414.69-33.92L414.69-33.92Q418.11-33.92 419.81-33.18L419.81-33.18L419.81-33.18Q421.50-32.45 422.53-31.23L422.53-31.23L422.53-31.23Q424.26-28.99 424.26-24.90L424.26-24.90L424.26-24.90Q424.26-20.86 422.53-12.48L422.53-12.48L422.53-12.48Q421.63-8.38 421.63-6.88L421.63-6.88L421.63-6.88Q421.63-5.38 422.50-4.48L422.50-4.48L422.50-4.48Q423.36-3.58 424.64-3.46L424.64-3.46L424.64-3.46Q424.00-1.28 421.79 0L421.79 0L421.79 0Q419.58 1.28 416.70 1.28ZM449.92-7.23L449.92-7.23L449.92-7.23Q446.59-3.78 440.51-3.78L440.51-3.78L440.51-3.78Q432.90-3.78 431.30-9.34L431.30-9.34L431.30-9.34Q430.78-11.01 430.78-12.86L430.78-12.86L430.78-12.86Q430.78-14.72 431.17-16.64L431.17-16.64L434.18-32.64L447.17-33.92L443.65-15.30L443.65-15.30Q443.52-14.46 443.33-13.57L443.33-13.57L443.33-13.57Q443.14-12.67 443.14-11.74L443.14-11.74L443.14-11.74Q443.14-10.82 443.46-10.21L443.46-10.21L443.46-10.21Q443.78-9.60 444.22-9.22L444.22-9.22L444.22-9.22Q444.99-8.70 446.37-8.70L446.37-8.70L446.37-8.70Q447.74-8.70 448.93-10.37L448.93-10.37L448.93-10.37Q450.11-12.03 450.69-14.91L450.69-14.91L454.21-32.64L466.82-33.92L462.02-8.77L462.02-8.77Q459.65 3.52 454.78 8.38L454.78 8.38L454.78 8.38Q452.29 10.88 449.06 11.87L449.06 11.87L449.06 11.87Q445.82 12.86 441.66 12.86L441.66 12.86L441.66 12.86Q434.94 12.86 431.10 10.75L431.10 10.75L431.10 10.75Q427.26 8.64 427.26 5.12L427.26 5.12L427.26 5.12Q427.26 2.50 429.25 0.99L429.25 0.99L429.25 0.99Q431.23-0.51 434.30-0.51L434.30-0.51L434.30-0.51Q436.99-0.51 439.04 0.64L439.04 0.64L439.04 0.64Q440.26 1.34 440.83 2.24L440.83 2.24L440.83 2.24Q439.36 3.52 439.36 5.63L439.36 5.63L439.36 5.63Q439.36 8.45 441.92 8.45L441.92 8.45L441.92 8.45Q446.14 8.45 448.58-1.28L448.58-1.28L448.58-1.28Q449.28-4.16 449.92-7.23ZM507.33-42.69L507.33-42.69L507.33-42.69Q523.01-42.69 523.01-31.62L523.01-31.62L523.01-31.62Q523.01-25.54 519.10-21.89L519.10-21.89L519.10-21.89Q515.26-18.24 508.54-18.24L508.54-18.24L508.54-18.24Q505.41-18.24 502.98-20.03L502.98-20.03L502.98-20.03Q501.82-20.80 501.06-21.82L501.06-21.82L501.06-21.82Q505.73-21.82 508.19-24.67L508.19-24.67L508.19-24.67Q510.66-27.52 510.66-33.09L510.66-33.09L510.66-33.09Q510.66-38.66 505.15-38.66L505.15-38.66L503.62-38.66L503.62-38.66Q503.23-38.66 502.91-38.59L502.91-38.59L495.55 0L481.66 0L489.54-41.92L489.54-41.92Q496.38-42.56 500.35-42.62L500.35-42.62L500.35-42.62Q504.32-42.69 507.33-42.69ZM537.28 1.28L537.28 1.28L537.28 1.28Q523.20 1.28 523.20-11.97L523.20-11.97L523.20-11.97Q523.20-21.38 528.38-27.46L528.38-27.46L528.38-27.46Q533.89-33.92 543.42-33.92L543.42-33.92L543.42-33.92Q550.34-33.92 553.86-30.72L553.86-30.72L553.86-30.72Q557.38-27.52 557.38-20.80L557.38-20.80L557.38-20.80Q557.38-10.56 551.87-4.61L551.87-4.61L551.87-4.61Q546.50 1.28 537.28 1.28ZM538.94-26.56L538.94-26.56L538.94-26.56Q538.18-24.83 537.57-22.24L537.57-22.24L537.57-22.24Q536.96-19.65 536.19-15.55L536.19-15.55L536.19-15.55Q535.42-11.46 535.42-6.40L535.42-6.40L535.42-6.40Q535.42-4.74 535.97-3.65L535.97-3.65L535.97-3.65Q536.51-2.56 537.98-2.56L537.98-2.56L537.98-2.56Q539.46-2.56 540.38-3.26L540.38-3.26L540.38-3.26Q541.31-3.97 542.02-5.63L542.02-5.63L542.02-5.63Q543.30-8.58 544.32-14.05L544.32-14.05L544.32-14.05Q545.34-19.52 545.44-21.89L545.44-21.89L545.44-21.89Q545.54-24.26 545.54-26.02L545.54-26.02L545.54-26.02Q545.54-27.78 545.02-28.93L545.02-28.93L545.02-28.93Q544.51-30.08 543.07-30.08L543.07-30.08L543.07-30.08Q541.63-30.08 540.67-29.18L540.67-29.18L540.67-29.18Q539.71-28.29 538.94-26.56ZM581.18-17.98L581.18-17.98L581.18-17.98Q583.49-22.08 583.49-26.24L583.49-26.24L583.49-26.24Q583.49-28.99 581.50-28.99L581.50-28.99L581.50-28.99Q579.97-28.99 578.37-26.37L578.37-26.37L578.37-26.37Q576.70-23.74 576.19-20.35L576.19-20.35L572.86 0L559.62 1.28L566.14-32.64L576.70-33.92L575.55-27.46L575.55-27.46Q578.69-33.92 585.73-33.92L585.73-33.92L585.73-33.92Q589.44-33.92 591.46-32L591.46-32L591.46-32Q593.47-30.08 593.47-26.14L593.47-26.14L593.47-26.14Q593.47-22.21 590.88-19.71L590.88-19.71L590.88-19.71Q588.29-17.22 583.87-17.22L583.87-17.22L583.87-17.22Q581.95-17.22 581.18-17.98ZM595.52-6.40L595.52-6.40L595.52-6.40Q595.52-8.13 596.42-12.48L596.42-12.48L599.81-29.76L596.03-29.76L596.29-31.68L596.29-31.68Q603.97-33.98 611.39-39.62L611.39-39.62L614.46-39.62L612.93-32.64L617.92-32.64L617.34-29.76L612.42-29.76L609.15-12.48L609.15-12.48Q608.32-8.51 608.32-7.17L608.32-7.17L608.32-7.17Q608.32-4.10 611.01-3.46L611.01-3.46L611.01-3.46Q610.37-1.28 608.06 0L608.06 0L608.06 0Q605.76 1.28 602.50 1.28L602.50 1.28L602.50 1.28Q599.23 1.28 597.38-0.77L597.38-0.77L597.38-0.77Q595.52-2.82 595.52-6.40ZM642.56-37.12L642.56-37.12L642.56-37.12Q643.46-38.66 643.46-40.32L643.46-40.32L643.46-40.32Q643.46-43.26 641.66-43.26L641.66-43.26L641.66-43.26Q638.91-43.26 637.76-37.63L637.76-37.63L636.80-32.64L642.62-32.64L642.24-29.76L636.22-29.76L630.46 0L617.54 1.28L623.68-29.76L619.14-29.76L619.71-32.64L624.19-32.64L625.54-37.70L625.54-37.70Q626.69-42.37 631.62-44.54L631.62-44.54L631.62-44.54Q635.20-46.08 641.22-46.08L641.22-46.08L641.22-46.08Q647.23-46.08 649.92-44.54L649.92-44.54L649.92-44.54Q652.61-43.01 652.61-40.96L652.61-40.96L652.61-40.96Q652.61-38.91 651.01-37.63L651.01-37.63L651.01-37.63Q649.41-36.35 647.62-36.35L647.62-36.35L647.62-36.35Q644.10-36.35 642.56-37.12ZM655.49 1.28L655.49 1.28L655.49 1.28Q641.41 1.28 641.41-11.97L641.41-11.97L641.41-11.97Q641.41-21.38 646.59-27.46L646.59-27.46L646.59-27.46Q652.10-33.92 661.63-33.92L661.63-33.92L661.63-33.92Q668.54-33.92 672.06-30.72L672.06-30.72L672.06-30.72Q675.58-27.52 675.58-20.80L675.58-20.80L675.58-20.80Q675.58-10.56 670.08-4.61L670.08-4.61L670.08-4.61Q664.70 1.28 655.49 1.28ZM657.15-26.56L657.15-26.56L657.15-26.56Q656.38-24.83 655.78-22.24L655.78-22.24L655.78-22.24Q655.17-19.65 654.40-15.55L654.40-15.55L654.40-15.55Q653.63-11.46 653.63-6.40L653.63-6.40L653.63-6.40Q653.63-4.74 654.18-3.65L654.18-3.65L654.18-3.65Q654.72-2.56 656.19-2.56L656.19-2.56L656.19-2.56Q657.66-2.56 658.59-3.26L658.59-3.26L658.59-3.26Q659.52-3.97 660.22-5.63L660.22-5.63L660.22-5.63Q661.50-8.58 662.53-14.05L662.53-14.05L662.53-14.05Q663.55-19.52 663.65-21.89L663.65-21.89L663.65-21.89Q663.74-24.26 663.74-26.02L663.74-26.02L663.74-26.02Q663.74-27.78 663.23-28.93L663.23-28.93L663.23-28.93Q662.72-30.08 661.28-30.08L661.28-30.08L661.28-30.08Q659.84-30.08 658.88-29.18L658.88-29.18L658.88-29.18Q657.92-28.29 657.15-26.56ZM694.66-3.52L694.66-3.52L694.66-3.52Q692.67 1.28 686.34 1.28L686.34 1.28L686.34 1.28Q683.14 1.28 681.09-0.96L681.09-0.96L681.09-0.96Q679.42-2.82 679.42-4.93L679.42-4.93L679.42-4.93Q679.42-9.73 681.66-20.22L681.66-20.22L686.34-44.80L699.33-46.08L693.12-13.70L693.12-13.70Q692.03-8.96 692.03-7.30L692.03-7.30L692.03-7.30Q692.03-3.65 694.66-3.52ZM715.46-3.52L715.46-3.52L715.46-3.52Q713.47 1.28 707.14 1.28L707.14 1.28L707.14 1.28Q703.87 1.28 701.82-0.96L701.82-0.96L701.82-0.96Q700.10-2.94 700.10-4.93L700.10-4.93L700.10-4.93Q700.10-10.11 702.46-20.22L702.46-20.22L704.83-32.64L717.82-33.92L713.92-13.70L713.92-13.70Q712.83-8.96 712.83-7.30L712.83-7.30L712.83-7.30Q712.83-3.65 715.46-3.52ZM705.98-41.54L705.98-41.54L705.98-41.54Q705.98-44.03 708.06-45.38L708.06-45.38L708.06-45.38Q710.14-46.72 713.15-46.72L713.15-46.72L713.15-46.72Q716.16-46.72 717.98-45.38L717.98-45.38L717.98-45.38Q719.81-44.03 719.81-41.54L719.81-41.54L719.81-41.54Q719.81-39.04 717.79-37.76L717.79-37.76L717.79-37.76Q715.78-36.48 712.77-36.48L712.77-36.48L712.77-36.48Q709.76-36.48 707.87-37.76L707.87-37.76L707.87-37.76Q705.98-39.04 705.98-41.54ZM734.85 1.28L734.85 1.28L734.85 1.28Q720.77 1.28 720.77-11.97L720.77-11.97L720.77-11.97Q720.77-21.38 725.95-27.46L725.95-27.46L725.95-27.46Q731.46-33.92 740.99-33.92L740.99-33.92L740.99-33.92Q747.90-33.92 751.42-30.72L751.42-30.72L751.42-30.72Q754.94-27.52 754.94-20.80L754.94-20.80L754.94-20.80Q754.94-10.56 749.44-4.61L749.44-4.61L749.44-4.61Q744.06 1.28 734.85 1.28ZM736.51-26.56L736.51-26.56L736.51-26.56Q735.74-24.83 735.14-22.24L735.14-22.24L735.14-22.24Q734.53-19.65 733.76-15.55L733.76-15.55L733.76-15.55Q732.99-11.46 732.99-6.40L732.99-6.40L732.99-6.40Q732.99-4.74 733.54-3.65L733.54-3.65L733.54-3.65Q734.08-2.56 735.55-2.56L735.55-2.56L735.55-2.56Q737.02-2.56 737.95-3.26L737.95-3.26L737.95-3.26Q738.88-3.97 739.58-5.63L739.58-5.63L739.58-5.63Q740.86-8.58 741.89-14.05L741.89-14.05L741.89-14.05Q742.91-19.52 743.01-21.89L743.01-21.89L743.01-21.89Q743.10-24.26 743.10-26.02L743.10-26.02L743.10-26.02Q743.10-27.78 742.59-28.93L742.59-28.93L742.59-28.93Q742.08-30.08 740.64-30.08L740.64-30.08L740.64-30.08Q739.20-30.08 738.24-29.18L738.24-29.18L738.24-29.18Q737.28-28.29 736.51-26.56Z" fill="#444"></path></g></g><style>text {
  font-size: 64px;
  font-family: Arial Black;
  dominant-baseline: central;
  text-anchor: middle;
}</style></svg>